<svg width="41" height="25" viewBox="0 0 41 25" fill="none" xmlns="http://www.w3.org/2000/svg">
<g clip-path="url(#clip0_263:15696)">
<path d="M41.7569 12.5001C41.7589 19.402 36.1653 24.9982 29.2634 25C22.3613 25.0017 16.7653 19.4083 16.7634 12.5064C16.7634 12.5042 16.7634 12.5023 16.7634 12.5001C16.7616 5.59829 22.3552 0.00183397 29.2569 4.50622e-07C36.1589 -0.00183307 41.7551 5.5918 41.7569 12.4937C41.7569 12.4958 41.7569 12.4978 41.7569 12.5001Z" fill="#FF9900"/>
<path d="M12.4163 0.00299237C5.55527 0.0465737 0 5.6285 0 12.4998C0 19.3979 5.59857 24.9965 12.4968 24.9965C15.7344 24.9965 18.6855 23.7627 20.9062 21.7405C20.906 21.7405 20.9058 21.7402 20.9052 21.7399H20.9079C21.3626 21.3255 21.7867 20.8784 22.1765 20.4017H19.6162C19.2744 19.9887 18.9636 19.5584 18.6845 19.1144H23.1002C23.3687 18.6847 23.6119 18.2384 23.8277 17.7763H17.9555C17.7554 17.3472 17.5816 16.9084 17.4332 16.4633H24.3505C24.7674 15.2177 24.9937 13.885 24.9937 12.4997C24.9937 11.5812 24.8941 10.6858 24.7057 9.82359H17.0664C17.161 9.37988 17.2805 8.94153 17.4229 8.51079H24.3428C24.188 8.05241 24.0084 7.60574 23.804 7.17275H17.9548C18.1658 6.72198 18.4048 6.28349 18.6718 5.86009H23.0843C22.7906 5.39226 22.4657 4.94531 22.1143 4.52191H19.6542C20.0346 4.07425 20.4533 3.65268 20.9079 3.2596C18.6871 1.23709 15.7351 0.00299237 12.4968 0.00299237C12.4699 0.00299237 12.4432 0.00285133 12.4163 0.00299237Z" fill="#CC0000"/>
<path d="M40.5032 19.0332C40.5712 19.0332 40.6374 19.0508 40.702 19.0855C40.7668 19.1202 40.8168 19.1703 40.8529 19.2353C40.889 19.2996 40.907 19.3675 40.907 19.4377C40.907 19.5071 40.8891 19.5742 40.8536 19.6385C40.8182 19.7027 40.7683 19.7528 40.7039 19.7885C40.6403 19.8236 40.5731 19.8414 40.5031 19.8414C40.4331 19.8414 40.366 19.8236 40.302 19.7885C40.2378 19.7526 40.1882 19.7029 40.1521 19.6385C40.1165 19.5742 40.0989 19.5071 40.0989 19.4377C40.0989 19.3675 40.1168 19.2996 40.153 19.2353C40.1894 19.1703 40.2396 19.1206 40.3041 19.0855C40.3692 19.0508 40.4354 19.0332 40.5032 19.0332ZM40.5032 19.1002C40.4467 19.1002 40.3914 19.1149 40.3374 19.1441C40.2838 19.1733 40.2419 19.2146 40.2117 19.2693C40.1811 19.3232 40.1659 19.379 40.1659 19.4377C40.1659 19.4958 40.1808 19.5519 40.2103 19.6053C40.2405 19.6584 40.2822 19.7002 40.3355 19.7301C40.3893 19.7598 40.445 19.7745 40.5031 19.7745C40.5615 19.7745 40.6173 19.7598 40.6708 19.7301C40.7241 19.7002 40.7657 19.6584 40.7955 19.6053C40.8249 19.5519 40.8396 19.496 40.8396 19.4377C40.8396 19.379 40.8247 19.323 40.7943 19.2693C40.7643 19.2146 40.7223 19.1733 40.6683 19.1441C40.6148 19.1147 40.5598 19.1002 40.5032 19.1002ZM40.3261 19.6608V19.2261H40.4759C40.5267 19.2261 40.5636 19.2301 40.5865 19.2386C40.6093 19.2466 40.6275 19.2603 40.6412 19.2804C40.6546 19.3003 40.6615 19.3215 40.6615 19.3441C40.6615 19.3759 40.6502 19.4036 40.6274 19.427C40.6051 19.4504 40.5747 19.4638 40.5372 19.4666C40.5526 19.473 40.5649 19.481 40.5745 19.4897C40.5921 19.5067 40.6132 19.5353 40.6386 19.5758L40.6915 19.6608H40.6061L40.5677 19.5924C40.5374 19.5385 40.513 19.505 40.4942 19.4912C40.4814 19.4814 40.4626 19.4763 40.4382 19.4763H40.3969V19.6613H40.3264L40.3261 19.6608ZM40.3963 19.4161H40.4815C40.5221 19.4161 40.5496 19.4099 40.5644 19.3979C40.5794 19.3855 40.5869 19.3697 40.5869 19.3497C40.5869 19.3367 40.5835 19.3252 40.5763 19.3153C40.569 19.305 40.5591 19.2977 40.5463 19.2924C40.5337 19.2875 40.5103 19.2847 40.4762 19.2847H40.3966V19.4161" fill="#FCB340"/>
<path d="M16.6439 16.0855L16.8103 14.9543C16.7194 14.9543 16.5856 14.9937 16.4675 14.9937C16.0043 14.9937 15.9465 14.7462 15.9828 14.5653L16.4392 12.2904H17.1433L17.2884 11.0065H16.6249L16.76 10.2285H15.3719C15.3425 10.2579 14.5865 14.6039 14.5865 15.1333C14.5865 15.9168 15.0263 16.2654 15.6466 16.2599C16.1321 16.2558 16.5105 16.1214 16.6439 16.0855Z" fill="#000066"/>
<path d="M17.0652 13.9293C17.0652 15.8096 18.3062 16.2563 19.3637 16.2563C20.3398 16.2563 20.8517 16.03 20.8517 16.03L21.0861 14.7466C21.0861 14.7466 20.2613 15.082 19.5909 15.082C18.1621 15.082 18.4125 14.0166 18.4125 14.0166L21.1576 14.0249C21.1576 14.0249 21.3323 13.163 21.3323 12.8117C21.3323 11.9348 20.8546 10.8584 19.3938 10.8584C18.0559 10.8587 17.0652 12.3002 17.0652 13.9293ZM19.3988 12.0499C20.1497 12.0499 20.0112 12.8939 20.0112 12.9623H18.534C18.534 12.8748 18.6735 12.0499 19.3988 12.0499Z" fill="#000066"/>
<path d="M27.8242 16.0848L28.0625 14.6343C28.0625 14.6343 27.4092 14.9617 26.9614 14.9617C26.0174 14.9617 25.6387 14.241 25.6387 13.4665C25.6387 11.8958 26.4508 11.0315 27.3549 11.0315C28.033 11.0315 28.577 11.4121 28.577 11.4121L28.7942 10.0027C28.7942 10.0027 28.1519 9.53885 27.4605 9.53617C25.3809 9.52799 24.1909 10.9759 24.1909 13.4789C24.1909 15.138 25.0721 16.267 26.66 16.267C27.1089 16.267 27.8242 16.0848 27.8242 16.0848Z" fill="#000066"/>
<path d="M9.32549 10.8789C8.41311 10.8789 7.71383 11.1721 7.71383 11.1721L7.52061 12.3184C7.52061 12.3184 8.09788 12.0838 8.97064 12.0838C9.46611 12.0838 9.82858 12.1395 9.82858 12.5422C9.82858 12.7868 9.78429 12.877 9.78429 12.877C9.78429 12.877 9.39333 12.8444 9.21224 12.8444C7.91326 12.8444 6.85278 13.3355 6.85278 14.8162C6.85278 15.983 7.64585 16.2505 8.13737 16.2505C9.07628 16.2505 9.44791 15.6578 9.46935 15.6561L9.45849 16.148C9.45849 16.148 10.63 16.148 10.6301 16.148L11.1528 12.4838C11.1528 10.9288 9.79657 10.8789 9.32549 10.8789ZM9.52831 13.8543C9.55384 14.078 9.47048 15.1358 8.66909 15.1358C8.25585 15.1358 8.14852 14.8198 8.14852 14.6334C8.14852 14.2689 8.3464 13.8319 9.32126 13.8319C9.54834 13.8319 9.49009 13.8482 9.52831 13.8543Z" fill="#000066"/>
<path d="M12.398 16.2236C12.6977 16.2236 14.411 16.2999 14.411 14.532C14.411 12.8788 12.8251 13.2056 12.8251 12.5413C12.8251 12.211 13.0836 12.1069 13.5563 12.1069C13.7437 12.1069 14.4655 12.1666 14.4655 12.1666L14.6332 10.9917C14.6332 10.9919 14.1661 10.8872 13.4056 10.8872C12.4213 10.8872 11.4222 11.2801 11.4222 12.6245C11.4222 14.148 13.0881 13.995 13.0881 14.6367C13.0881 15.0651 12.6227 15.1003 12.2639 15.1003C11.6432 15.1003 11.0844 14.8872 11.0824 14.8975L10.9048 16.0604C10.9371 16.0703 11.282 16.2236 12.398 16.2236Z" fill="#000066"/>
<path d="M38.7995 9.81299L38.5591 11.6055C38.5591 11.6055 38.058 10.9137 37.2739 10.9137C35.7988 10.9137 35.0386 12.3837 35.0386 14.0724C35.0386 15.1626 35.5807 16.2313 36.6886 16.2313C37.4856 16.2313 37.9275 15.6754 37.9275 15.6754L37.869 16.15H39.1634L40.1799 9.82272L38.7995 9.81299ZM38.228 13.2968C38.228 13.9996 37.88 14.9385 37.1588 14.9385C36.6799 14.9385 36.4553 14.5364 36.4553 13.9055C36.4553 12.8738 36.9186 12.1933 37.5035 12.1933C37.9822 12.1933 38.228 12.5219 38.228 13.2968Z" fill="#000066"/>
<path d="M2.121 16.1555L2.93099 11.3785L3.05003 16.1555H3.96664L5.67675 11.3785L4.91923 16.1555H6.28139L7.3303 9.81972L5.16647 9.80322L3.87934 13.6824L3.84408 9.81972H1.86106L0.797058 16.1555H2.121Z" fill="#000066"/>
<path d="M22.6214 16.1644C23.0087 13.9621 23.1466 12.2228 24.2761 12.583C24.4383 11.7306 24.8249 10.9893 25.0015 10.6285C25.0015 10.6285 24.9456 10.5454 24.5965 10.5454C24.0006 10.5454 23.205 11.7547 23.205 11.7547L23.3239 11.007H22.0848L21.2549 16.1643H22.6214V16.1644Z" fill="#000066"/>
<path d="M30.6112 10.8789C29.6984 10.8789 28.9991 11.1721 28.9991 11.1721L28.8061 12.3184C28.8061 12.3184 29.3836 12.0838 30.2559 12.0838C30.7516 12.0838 31.1139 12.1395 31.1139 12.5422C31.1139 12.7868 31.0697 12.877 31.0697 12.877C31.0697 12.877 30.6789 12.8444 30.4978 12.8444C29.1987 12.8444 28.1384 13.3355 28.1384 14.8162C28.1384 15.983 28.9313 16.2505 29.4228 16.2505C30.3614 16.2505 30.7334 15.6578 30.7547 15.6561L30.7437 16.148H31.9156L32.4381 12.4838C32.4382 10.9288 31.082 10.8789 30.6112 10.8789ZM30.8137 13.8543C30.8391 14.078 30.7558 15.1358 29.9545 15.1358C29.541 15.1358 29.4338 14.8198 29.4338 14.6334C29.4338 14.2689 29.6316 13.8319 30.6066 13.8319C30.8338 13.8319 30.7757 13.8482 30.8137 13.8543Z" fill="#000066"/>
<path d="M33.7869 16.1644C33.9995 14.5441 34.3932 12.2694 35.4414 12.583C35.6035 11.7305 35.4472 11.7328 35.0982 11.7328C34.5019 11.7328 34.3699 11.7545 34.3699 11.7545L34.489 11.0068H33.2499L32.42 16.1642H33.7869V16.1644Z" fill="#000066"/>
<path d="M16.9907 15.6813L17.1572 14.5503C17.0663 14.5503 16.9324 14.5892 16.8144 14.5892C16.3512 14.5892 16.3001 14.343 16.3296 14.1609L16.7038 11.8532H17.4077L17.5777 10.6022H16.9139L17.0491 9.82422H15.7185C15.6892 9.85356 14.933 14.1997 14.933 14.7289C14.933 15.5124 15.3729 15.8613 15.9932 15.8556C16.479 15.8516 16.8572 15.7171 16.9907 15.6813Z" fill="white"/>
<path d="M17.4122 13.5251C17.4122 15.4054 18.6534 15.8523 19.7108 15.8523C20.6868 15.8523 21.1162 15.6341 21.1162 15.6341L21.3506 14.3507C21.3506 14.3507 20.6082 14.6778 19.9377 14.6778C18.509 14.6778 18.7592 13.6125 18.7592 13.6125H21.4632C21.4632 13.6125 21.6378 12.7504 21.6378 12.399C21.6378 11.5223 21.2014 10.4541 19.7405 10.4541C18.4026 10.4544 17.4122 11.896 17.4122 13.5251ZM19.7456 11.6457C20.4965 11.6457 20.358 12.4896 20.358 12.5579H18.8807C18.8807 12.4707 19.0204 11.6457 19.7456 11.6457Z" fill="white"/>
<path d="M28.1713 15.6809L28.4094 14.2303C28.4094 14.2303 27.7565 14.5576 27.3084 14.5576C26.3646 14.5576 25.9861 13.8369 25.9861 13.0626C25.9861 11.4919 26.7982 10.6277 27.7022 10.6277C28.3802 10.6277 28.9243 11.0084 28.9243 11.0084L29.1415 9.59897C29.1415 9.59897 28.3346 9.27246 27.643 9.27246C26.1069 9.27246 24.6126 10.605 24.6126 13.1076C24.6126 14.7671 25.4195 15.8631 27.0073 15.8631C27.4563 15.8632 28.1713 15.6809 28.1713 15.6809Z" fill="white"/>
<path d="M9.67256 10.4746C8.76017 10.4746 8.06075 10.7678 8.06075 10.7678L7.86767 11.9141C7.86767 11.9141 8.44495 11.6795 9.31756 11.6795C9.81303 11.6795 10.1755 11.7352 10.1755 12.1379C10.1755 12.3825 10.1311 12.4727 10.1311 12.4727C10.1311 12.4727 9.74026 12.44 9.5593 12.44C8.40856 12.44 7.19971 12.9311 7.19971 14.4117C7.19971 15.5784 7.99277 15.8461 8.4843 15.8461C9.42306 15.8461 9.8277 15.237 9.84928 15.2351L9.80542 15.7436H10.977L11.4997 12.0792C11.4997 10.5247 10.1436 10.4746 9.67256 10.4746ZM9.9576 13.4582C9.98299 13.682 9.81726 14.7312 9.01616 14.7312C8.60291 14.7312 8.49544 14.4155 8.49544 14.2288C8.49544 13.8646 8.69332 13.4274 9.66833 13.4274C9.89512 13.4277 9.91938 13.452 9.9576 13.4582Z" fill="white"/>
<path d="M12.7449 15.8194C13.0446 15.8194 14.758 15.8956 14.758 14.1277C14.758 12.4748 13.172 12.8013 13.172 12.1373C13.172 11.8067 13.4305 11.7026 13.903 11.7026C14.0906 11.7026 14.8123 11.7623 14.8123 11.7623L14.9801 10.5874C14.9801 10.5876 14.513 10.4829 13.7525 10.4829C12.7682 10.4829 11.7691 10.8758 11.7691 12.2202C11.7691 13.7436 13.435 13.5907 13.435 14.2325C13.435 14.6608 12.9696 14.6956 12.611 14.6956C11.9902 14.6956 11.4313 14.4827 11.4293 14.4928L11.2519 15.6558C11.284 15.6657 11.6288 15.8194 12.7449 15.8194Z" fill="white"/>
<path d="M39.1928 9.42057L38.9058 11.2015C38.9058 11.2015 38.405 10.5097 37.621 10.5097C36.4018 10.5097 35.3856 11.9796 35.3856 13.6685C35.3856 14.7588 35.9276 15.827 37.0356 15.827C37.8327 15.827 38.2745 15.2713 38.2745 15.2713L38.216 15.7459H39.5102L40.5267 9.41846L39.1928 9.42057ZM38.575 12.893C38.575 13.5958 38.227 14.5345 37.5056 14.5345C37.0268 14.5345 36.8024 14.1326 36.8024 13.5017C36.8024 12.4701 37.2657 11.7895 37.8503 11.7895C38.3293 11.7893 38.575 12.1184 38.575 12.893Z" fill="white"/>
<path d="M2.46808 15.7515L3.27807 10.9744L3.39697 15.7515H4.31372L6.02383 10.9744L5.26631 15.7515H6.62847L7.67752 9.41553H5.57109L4.25928 13.303L4.19102 9.41553H2.24933L1.18518 15.7515H2.46808Z" fill="white"/>
<path d="M22.9685 15.76C23.3558 13.5575 23.4276 11.7691 24.3518 12.0965C24.5136 11.244 24.6697 10.9143 24.8463 10.5535C24.8463 10.5535 24.7635 10.5361 24.5898 10.5361C23.9939 10.5361 23.5524 11.3502 23.5524 11.3502L23.671 10.6026H22.4321L21.6021 15.76H22.9685Z" fill="white"/>
<path d="M31.2415 10.4746C30.3291 10.4746 29.6297 10.7678 29.6297 10.7678L29.4368 11.9141C29.4368 11.9141 30.014 11.6795 30.8867 11.6795C31.3821 11.6795 31.7443 11.7352 31.7443 12.1379C31.7443 12.3825 31.7002 12.4727 31.7002 12.4727C31.7002 12.4727 31.3093 12.44 31.1283 12.44C29.9777 12.44 28.7688 12.9311 28.7688 14.4117C28.7688 15.5784 29.5617 15.8461 30.0532 15.8461C30.992 15.8461 31.3967 15.237 31.4181 15.2351L31.3745 15.7436C31.3745 15.7436 32.5457 15.7436 32.5461 15.7436L33.0687 12.0792C33.0688 10.5247 31.7126 10.4746 31.2415 10.4746ZM31.527 13.4582C31.5524 13.682 31.3865 14.7312 30.5851 14.7312C30.1719 14.7312 30.0647 14.4155 30.0647 14.2288C30.0647 13.8646 30.2625 13.4274 31.2374 13.4274C31.4642 13.4277 31.4883 13.452 31.527 13.4582Z" fill="white"/>
<path d="M34.1395 15.76C34.5269 13.5575 34.5987 11.7691 35.5227 12.0965C35.6847 11.244 35.841 10.9143 36.0175 10.5535C36.0175 10.5535 35.9347 10.5361 35.7609 10.5361C35.165 10.5361 34.7236 11.3502 34.7236 11.3502L34.8422 10.6026H33.6033L32.7733 15.76H34.1395Z" fill="white"/>
<path d="M40.4979 14.9644C40.5655 14.9644 40.632 14.9817 40.6962 15.017C40.7609 15.0511 40.8113 15.1013 40.8474 15.1663C40.8837 15.2309 40.9014 15.2982 40.9014 15.3686C40.9014 15.4381 40.8837 15.5052 40.848 15.5694C40.8126 15.6336 40.7628 15.6839 40.6986 15.7193C40.6346 15.7546 40.5674 15.7724 40.4978 15.7724C40.4275 15.7724 40.3604 15.7546 40.2962 15.7193C40.2322 15.6837 40.1825 15.6336 40.147 15.5694C40.1109 15.5052 40.0933 15.4381 40.0933 15.3686C40.0933 15.2982 40.1112 15.2309 40.1474 15.1663C40.1838 15.1013 40.2343 15.0514 40.2988 15.017C40.3638 14.9817 40.4303 14.9644 40.4979 14.9644ZM40.4979 15.0309C40.4414 15.0309 40.3861 15.0456 40.332 15.0751C40.2782 15.1038 40.2363 15.1455 40.206 15.1999C40.1758 15.2536 40.1605 15.3099 40.1605 15.3683C40.1605 15.4267 40.1752 15.4825 40.2047 15.5358C40.2347 15.589 40.2765 15.6308 40.3303 15.6608C40.3837 15.6901 40.4394 15.705 40.4979 15.705C40.556 15.705 40.6121 15.6901 40.6655 15.6608C40.7188 15.6308 40.7605 15.589 40.7901 15.5358C40.8199 15.4821 40.8344 15.4267 40.8344 15.3683C40.8344 15.3099 40.8193 15.2536 40.7892 15.1999C40.7591 15.1455 40.7172 15.1038 40.6631 15.0751C40.6095 15.0457 40.5546 15.0309 40.4979 15.0309ZM40.3209 15.5917V15.1569H40.4705C40.5215 15.1569 40.5587 15.161 40.5813 15.1693C40.6041 15.177 40.622 15.191 40.636 15.2112C40.6497 15.2312 40.6566 15.2522 40.6566 15.2748C40.6566 15.3065 40.645 15.3343 40.6222 15.3577C40.5999 15.3811 40.5698 15.3947 40.5323 15.3972C40.5473 15.4037 40.5597 15.4115 40.5693 15.4202C40.5866 15.4374 40.6081 15.4662 40.6334 15.5064L40.6866 15.5916H40.6007L40.5625 15.5232C40.532 15.4691 40.5076 15.4356 40.489 15.4219C40.4762 15.4119 40.4574 15.4069 40.4327 15.4069H40.3917V15.5918L40.3209 15.5917ZM40.3911 15.347H40.4763C40.5171 15.347 40.5446 15.3409 40.5593 15.3288C40.5741 15.317 40.5818 15.3007 40.5818 15.2806C40.5818 15.2677 40.5783 15.2562 40.5712 15.2464C40.5641 15.236 40.554 15.2285 40.5412 15.2233C40.5284 15.2184 40.5054 15.2158 40.471 15.2158H40.3913V15.347" fill="white"/>
</g>
<defs>
<clipPath id="clip0_263:15696">
<rect width="41" height="25" fill="white"/>
</clipPath>
</defs>
</svg>
