<svg width="39" height="25" viewBox="0 0 39 25" fill="none" xmlns="http://www.w3.org/2000/svg">
<g clip-path="url(#clip0_263:15704)">
<path d="M39 24.7739H0V2.71232e-05H39V24.7739Z" fill="white"/>
<path d="M0.649292 20.748H38.3493V24.1284H0.649292V20.748V20.748Z" fill="#F7B600"/>
<path d="M0.649292 4.02979H38.3493V0.649754H0.649292V4.02979V4.02979Z" fill="#1A1F71"/>
<path d="M18.7501 7.08175L16.8608 15.9141H14.5757L16.465 7.08175H18.7501ZM28.363 12.7848L29.5662 9.46799L30.2574 12.7848H28.363V12.7848ZM30.9137 15.9141H33.0264L31.1806 7.08175H29.2313C28.7917 7.08175 28.4222 7.33687 28.2583 7.72923L24.8295 15.9141H27.2291L27.7051 14.5947H30.6368L30.9137 15.9141ZM24.9487 13.0304C24.9582 10.6998 21.7261 10.5705 21.7472 9.52902C21.755 9.2125 22.0565 8.8754 22.7166 8.78928C23.0436 8.74703 23.9469 8.71326 24.9702 9.1847L25.3705 7.31069C24.8207 7.1119 24.1132 6.92051 23.2332 6.92051C20.9742 6.92051 19.3852 8.12031 19.3725 9.83976C19.3577 11.1116 20.5075 11.8205 21.3722 12.2441C22.2629 12.6767 22.5615 12.9547 22.5574 13.3413C22.5511 13.9339 21.8462 14.1962 21.1907 14.206C20.0415 14.2242 19.3752 13.8954 18.8439 13.6479L18.4291 15.584C18.9637 15.829 19.949 16.0419 20.9696 16.0527C23.371 16.0527 24.9416 14.8667 24.9487 13.0304ZM15.4848 7.08175L11.7826 15.9141H9.36713L7.54512 8.86511C7.4348 8.43195 7.33874 8.27252 7.00255 8.08944C6.45311 7.79098 5.54581 7.51183 4.74829 7.33814L4.8021 7.08175H8.69076C9.18566 7.08175 9.63128 7.41126 9.74449 7.98183L10.7072 13.0932L13.0839 7.08175H15.4848Z" fill="#1A1F71"/>
<path d="M21.6746 18.3453H20.7461V19.2094H21.7847V19.4692H20.4332V17.0718H21.7314V17.3316H20.7461V18.0891H21.6746V18.3453Z" fill="#1A1F71"/>
<path d="M22.2644 16.944H22.5773V19.4692H22.2644V16.944Z" fill="#1A1F71"/>
<path d="M24.2842 18.4412C24.2878 18.2457 24.2024 17.9362 23.8504 17.9362C23.5302 17.9362 23.395 18.2244 23.3701 18.4412H24.2842ZM23.3666 18.6653C23.3737 19.0887 23.6405 19.2629 23.9569 19.2629C24.1811 19.2629 24.3198 19.2237 24.4337 19.1741L24.4906 19.3982C24.3803 19.4478 24.1884 19.5083 23.9143 19.5083C23.3845 19.5083 23.068 19.1562 23.068 18.6369C23.068 18.1176 23.3737 17.7121 23.8753 17.7121C24.4408 17.7121 24.5867 18.2031 24.5867 18.5196C24.5867 18.5835 24.5831 18.6297 24.5758 18.6653H23.3666V18.6653Z" fill="#1A1F71"/>
<path d="M26.2896 19.4086C26.2078 19.4478 26.0263 19.5083 25.7952 19.5083C25.2759 19.5083 24.9381 19.1562 24.9381 18.6297C24.9381 18.0998 25.3007 17.7121 25.8627 17.7121C26.0476 17.7121 26.2112 17.7582 26.2966 17.8046L26.2257 18.0429C26.1507 18.0037 26.0334 17.9609 25.8627 17.9609C25.4679 17.9609 25.2546 18.2561 25.2546 18.612C25.2546 19.0103 25.5107 19.2557 25.8521 19.2557C26.0299 19.2557 26.1473 19.2131 26.2361 19.1739L26.2896 19.4086Z" fill="#1A1F71"/>
<path d="M27.1675 17.3351V17.7477H27.6154V17.9858H27.1675V18.9143C27.1675 19.1279 27.2279 19.2487 27.4022 19.2487C27.4874 19.2487 27.5374 19.2416 27.5836 19.2272L27.5979 19.4657C27.5374 19.487 27.4414 19.5083 27.3204 19.5083C27.1745 19.5083 27.0571 19.4585 26.9826 19.3769C26.8972 19.2806 26.8616 19.1279 26.8616 18.9251V17.9858H26.5947V17.7477H26.8616V17.4276L27.1675 17.3351Z" fill="#1A1F71"/>
<path d="M28.0526 18.2848C28.0526 18.082 28.0488 17.9078 28.0383 17.7476H28.3122L28.3265 18.0891H28.337C28.4153 17.8579 28.6073 17.7121 28.8171 17.7121C28.8492 17.7121 28.8741 17.7157 28.9027 17.7191V18.0145C28.8705 18.0073 28.8387 18.0073 28.7958 18.0073C28.5755 18.0073 28.4188 18.1709 28.3762 18.4058C28.3691 18.4484 28.3655 18.5016 28.3655 18.5516V19.4692H28.0526V18.2848Z" fill="#1A1F71"/>
<path d="M29.4641 18.612C29.4641 18.989 29.6775 19.2736 29.9834 19.2736C30.2822 19.2736 30.5061 18.9924 30.5061 18.6048C30.5061 18.3132 30.3604 17.9467 29.9904 17.9467C29.6243 17.9467 29.4641 18.2883 29.4641 18.612ZM30.8264 18.5941C30.8264 19.2308 30.3817 19.5083 29.9691 19.5083C29.5067 19.5083 29.1442 19.1667 29.1442 18.6227C29.1442 18.0499 29.5246 17.7121 29.9977 17.7121C30.492 17.7121 30.8264 18.0712 30.8264 18.5941" fill="#1A1F71"/>
<path d="M31.306 18.2136C31.306 18.0324 31.3022 17.8901 31.2917 17.7478H31.5691L31.587 18.0324H31.594C31.6794 17.8722 31.8786 17.7122 32.1631 17.7122C32.4013 17.7122 32.7712 17.8545 32.7712 18.4448V19.4692H32.4583V18.4769C32.4583 18.1996 32.3552 17.9683 32.06 17.9683C31.8573 17.9683 31.6971 18.1142 31.6404 18.2884C31.626 18.3276 31.6189 18.3808 31.6189 18.4343V19.4692H31.306V18.2136Z" fill="#1A1F71"/>
</g>
<defs>
<clipPath id="clip0_263:15704">
<rect width="39" height="24.7739" fill="white"/>
</clipPath>
</defs>
</svg>
