<svg width="60" height="25" viewBox="0 0 60 25" fill="none" xmlns="http://www.w3.org/2000/svg">
<path d="M26.0021 20.82H21.6725L24.3784 4.19022H28.7085L26.0021 20.82ZM18.0302 4.19022L13.9025 15.6283L13.4141 13.1653L13.4145 13.1661L11.9577 5.68754C11.9577 5.68754 11.7815 4.19022 9.90387 4.19022H3.08007L3 4.4718C3 4.4718 5.08673 4.90596 7.52889 6.37259L11.2904 20.8205H15.8015L22.6898 4.19022H18.0302V4.19022ZM52.0847 20.82H56.0602L52.594 4.18977H49.1136C47.5064 4.18977 47.115 5.42909 47.115 5.42909L40.6577 20.82H45.171L46.0736 18.3498H51.5776L52.0847 20.82ZM47.3205 14.9375L49.5954 8.71421L50.8752 14.9375H47.3205ZM40.9962 8.18931L41.6141 4.61815C41.6141 4.61815 39.7075 3.89307 37.72 3.89307C35.5714 3.89307 30.4691 4.83212 30.4691 9.39837C30.4691 13.6946 36.4575 13.748 36.4575 16.0047C36.4575 18.2613 31.0861 17.857 29.3135 16.4339L28.6698 20.1679C28.6698 20.1679 30.603 21.1069 33.5568 21.1069C36.5114 21.1069 40.9686 19.5771 40.9686 15.4135C40.9686 11.0896 34.9264 10.6871 34.9264 8.80719C34.9269 6.92686 39.1435 7.1684 40.9962 8.18931V8.18931Z" fill="#2566AF"/>
<path d="M13.4144 13.1657L11.9576 5.68724C11.9576 5.68724 11.7814 4.18994 9.9038 4.18994H3.08007L3 4.47152C3 4.47152 6.27975 5.15122 9.42561 7.69787C12.4336 10.132 13.4144 13.1657 13.4144 13.1657Z" fill="#E6A540"/>
</svg>
