<svg width="42" height="15" viewBox="0 0 42 15" fill="none" xmlns="http://www.w3.org/2000/svg">
<path fill-rule="evenodd" clip-rule="evenodd" d="M7.32138 10.9399C5.81517 10.9399 5.12966 11.3566 4.85931 12.2287L4 15H33.2745C34.7807 15 35.4662 14.5833 35.7366 13.7112L36.5959 10.9399H7.32138ZM10.8455 7.07364H9.39724C7.13793 7.07364 8.77931 2.25775 10.6814 2.25775H12.9697C13.3366 2.25775 13.9834 2.32558 14.3021 1.41473L14.7945 0H11.6566C9.95724 0 8.63448 0.600775 7.67862 1.60853C6.02759 3.33333 5.46759 6.02713 5.86345 7.31589C6.24 8.50775 7.26345 9.29264 8.86621 9.31202L10.1117 9.32171H11.6469L12.0234 8.18799C12.3034 7.38372 11.6759 7.07364 10.8455 7.07364ZM28.4759 5.07752L28.949 3.53682H23.8993C23.0593 3.53682 22.6828 3.76938 22.5379 4.25388L22.0648 5.79457H27.1145C27.9545 5.79457 28.331 5.56202 28.4759 5.07752ZM21.3117 7.7907L20.8386 9.3314H25.8883C26.7186 9.3314 27.1048 9.09884 27.2497 8.61434L27.7228 7.07364H22.6731C21.8428 7.07364 21.4662 7.3062 21.3117 7.7907ZM29.6538 1.55039L30.1269 0.00968978H25.0772C24.2372 0.00968978 23.8607 0.242248 23.7159 0.726744L23.2428 2.26744H28.2924C29.1228 2.26744 29.4993 2.03488 29.6538 1.55039ZM22.0262 1.86047C21.8138 0.426357 21.051 0.00968978 19.1972 0.00968978H15.8179L13.8483 5.79457H15.0938C15.8372 5.79457 16.2138 5.80426 16.6097 4.73837L17.4303 2.25775H18.6855C19.7572 2.25775 19.5159 3.60465 18.9752 4.91279C18.4924 6.06589 17.6524 7.08333 16.6386 7.08333H14.5434C13.7034 7.08333 13.3172 7.31589 13.1628 7.80039L12.6414 9.34109H14.1766L15.6828 9.3314C17.0152 9.32171 18.1062 9.22481 19.3807 8.07171C20.7324 6.84109 22.2966 3.68217 22.0262 1.86047ZM39 0H36.0745L33.3228 2.93605C33.0041 3.27519 32.6759 3.61434 32.3572 4.01163H32.3283L33.6993 0H31.3145L28.0993 9.3314H30.4841L31.5076 6.39535L32.5697 5.49419L33.4097 8.14923C33.6703 8.97287 33.9407 9.3314 34.52 9.3314H36.3448L34.4717 4.11822L39 0Z" fill="#00B33C"/>
<path d="M7.41831 13.5543V14.413H7V12.0326H7.82711C8.06479 12.0326 8.25493 12.0978 8.38803 12.2391C8.52113 12.3804 8.59718 12.5652 8.59718 12.7935C8.59718 13.0217 8.53063 13.2065 8.38803 13.3478C8.25493 13.4891 8.06479 13.5543 7.82711 13.5543H7.41831ZM7.41831 13.1848H7.82711C7.9412 13.1848 8.02676 13.1522 8.09331 13.0761C8.15035 13 8.17887 12.913 8.17887 12.8043C8.17887 12.6848 8.15035 12.5978 8.09331 12.5217C8.03627 12.4457 7.9412 12.413 7.82711 12.413H7.41831V13.1848ZM9.78556 13.9022H9.05352L8.91092 14.413H8.49261L9.20563 12.0326H9.63345L10.3465 14.413H9.92817L9.78556 13.9022ZM9.1581 13.5217H9.68099L9.4243 12.587H9.41479L9.1581 13.5217ZM11.8771 12.4022H10.9549V12.8696H11.3162C11.5539 12.8696 11.744 12.9457 11.8866 13.087C12.0292 13.2283 12.0958 13.413 12.0958 13.6413C12.0958 13.8696 12.0292 14.0543 11.8866 14.1957C11.744 14.337 11.5539 14.413 11.3162 14.413H10.5176V12.0326H11.8771V12.4022ZM10.9549 13.2391V14.0435H11.3162C11.4303 14.0435 11.5254 14 11.5824 13.9239C11.6394 13.8478 11.6775 13.75 11.6775 13.6304C11.6775 13.5217 11.6489 13.4239 11.5824 13.3478C11.5158 13.2717 11.4303 13.2283 11.3162 13.2283H10.9549V13.2391ZM14.0542 13.4348C14.0542 13.7283 13.9782 13.9674 13.8165 14.163C13.6549 14.3587 13.4458 14.4457 13.1891 14.4457C12.9324 14.4457 12.7232 14.3478 12.5616 14.163C12.4 13.9783 12.3239 13.7283 12.3239 13.4348V13.0109C12.3239 12.7174 12.4 12.4783 12.5616 12.2826C12.7232 12.087 12.9324 12 13.1891 12C13.4458 12 13.6549 12.0978 13.8165 12.2826C13.9782 12.4674 14.0637 12.7174 14.0637 13.0109V13.4348H14.0542ZM13.6359 13.0109C13.6359 12.8261 13.5979 12.6739 13.5123 12.5543C13.4268 12.4348 13.3222 12.3804 13.1796 12.3804C13.037 12.3804 12.9229 12.4348 12.8468 12.5543C12.7708 12.6739 12.7327 12.8261 12.7327 13.0109V13.4457C12.7327 13.6304 12.7708 13.7935 12.8468 13.9022C12.9229 14.0217 13.037 14.0761 13.1796 14.0761C13.3222 14.0761 13.4363 14.0217 13.5123 13.9022C13.5884 13.7826 13.6359 13.6304 13.6359 13.4457V13.0109ZM15.7655 12.4022H15.1761V14.413H14.7577V12.4022H14.1683V12.0326H15.756V12.4022H15.7655ZM16.9729 13.9022H16.2408L16.0982 14.413H15.6799L16.393 12.0326H16.8208L17.5338 14.413H17.1155L16.9729 13.9022ZM16.3454 13.5217H16.8683L16.6116 12.587H16.6021L16.3454 13.5217ZM19.0169 13.3696H18.1518V14.0435H19.1595V14.413H17.7334V12.0326H19.1595V12.4022H18.1518V13H19.0169V13.3696ZM19.9581 12.0326L20.4905 13.7826H20.5L21.0324 12.0326H21.5743V14.413H21.156V13.7065L21.194 12.6522H21.1845L20.6236 14.413H20.3479L19.7965 12.663H19.787L19.825 13.7065V14.413H19.4067V12.0326H19.9581ZM22.6961 14.413V12.0326H23.3996C23.6468 12.0326 23.837 12.087 23.9701 12.1957C24.1032 12.3043 24.1792 12.4674 24.1792 12.6848C24.1792 12.7935 24.1507 12.8913 24.1032 12.9783C24.0556 13.0652 23.9796 13.1304 23.8845 13.1739C24.0081 13.2065 24.1032 13.2717 24.1697 13.3696C24.2363 13.4674 24.2648 13.587 24.2648 13.7174C24.2648 13.9457 24.1982 14.1196 24.0651 14.2391C23.932 14.3587 23.7514 14.413 23.5042 14.413H22.6961ZM23.1144 13.0326H23.4187C23.5327 13.0326 23.6183 13.0109 23.6754 12.9565C23.7324 12.9022 23.7609 12.8261 23.7609 12.7283C23.7609 12.6196 23.7324 12.5326 23.6658 12.4891C23.6088 12.4348 23.5137 12.413 23.3996 12.413H23.1144V13.0326ZM23.1144 13.3587V14.0435H23.4947C23.6088 14.0435 23.6849 14.0109 23.7514 13.9565C23.818 13.9022 23.837 13.8152 23.837 13.7174C23.837 13.5978 23.8085 13.5109 23.7609 13.4457C23.7134 13.3804 23.6373 13.3587 23.5232 13.3587H23.1144ZM26.1472 13.5978C26.1567 13.8587 26.0901 14.0652 25.9475 14.2174C25.8049 14.3696 25.6148 14.4457 25.3581 14.4457C25.1109 14.4457 24.9018 14.3587 24.7496 14.1739C24.5975 13.9891 24.512 13.75 24.512 13.4674V13C24.512 12.7065 24.588 12.4783 24.7401 12.2935C24.8923 12.1087 25.0919 12.0109 25.3391 12.0109C25.5958 12.0109 25.7954 12.087 25.938 12.2391C26.0806 12.3913 26.1567 12.5978 26.1472 12.8587V12.8696H25.7384C25.7384 12.7174 25.7099 12.5978 25.6433 12.5109C25.5768 12.4239 25.4722 12.3913 25.3391 12.3913C25.2155 12.3913 25.1109 12.4457 25.0444 12.5652C24.9683 12.6848 24.9303 12.8261 24.9303 13.0109V13.4891C24.9303 13.6739 24.9683 13.8152 25.0444 13.9348C25.1204 14.0543 25.225 14.1087 25.3581 14.1087C25.4912 14.1087 25.5863 14.0652 25.6433 13.9891C25.7099 13.913 25.7384 13.7935 25.7384 13.6304H26.1472V13.5978ZM27.7254 13.3696H26.8602V14.0435H27.868V14.413H26.4419V12.0326H27.868V12.4022H26.8602V13H27.7254V13.3696ZM29.4842 12.4022H28.543V14.413H28.1246V12.0326H29.4842V12.4022ZM31.4141 15H31.0338V14.413H29.7599V15H29.3796L29.3511 14.0435H29.5127C29.5887 13.9674 29.6553 13.8587 29.7123 13.6957C29.7694 13.5435 29.7979 13.3043 29.8074 13L29.8644 12.0217H31.2144V14.0326H31.4616L31.4141 15ZM30.2067 13.0109C30.1972 13.25 30.1687 13.4565 30.1306 13.6196C30.0926 13.7935 30.0356 13.9348 29.969 14.0435H30.7866V12.4022H30.2447L30.2067 13.0109ZM32.8306 13.9022H32.0986L31.956 14.413H31.5377L32.2507 12.0326H32.6785L33.3916 14.413H32.9732L32.8306 13.9022ZM32.2032 13.5217H32.7261L32.4694 12.587H32.4599L32.2032 13.5217ZM34 13.587H33.5817V12.0326H34V13.587ZM34 14.413H33.5817V14H34V14.413Z" fill="white"/>
</svg>
