<svg width="608" height="308" viewBox="0 0 608 308" fill="none" xmlns="http://www.w3.org/2000/svg">
<path opacity="0.27" d="M313.621 200.358C473.735 200.358 603.533 194.664 603.533 187.64C603.533 180.616 473.735 174.922 313.621 174.922C153.508 174.922 23.71 180.616 23.71 187.64C23.71 194.664 153.508 200.358 313.621 200.358Z" fill="#FFE431"/>
<path d="M92.4623 111.645L92.0944 186.072C92.0867 187.346 91.0488 188.373 89.7785 188.365L76.7273 188.299C75.4532 188.291 74.4269 187.253 74.4346 185.983L74.8025 111.556C74.8103 110.282 75.8482 109.256 77.1184 109.264L90.1697 109.33C91.4399 109.333 92.4701 110.371 92.4623 111.645Z" fill="#FFEC70"/>
<path d="M83.6599 106.675L83.2412 190.962L95.2429 191.022L95.6616 106.735L83.6599 106.675Z" fill="#F5C400"/>
<path d="M77.452 111.474L77.0802 186.094C77.0724 187.992 75.5233 189.526 73.6218 189.518C71.7241 189.51 70.1905 187.961 70.1983 186.06L70.5701 111.439C70.5778 109.542 72.1269 108.008 74.0284 108.016C75.93 108.027 77.4597 109.573 77.452 111.474Z" fill="#B89F00"/>
<path d="M74.5062 171.771L74.4697 179.114L92.1334 179.202L92.1699 171.859L74.5062 171.771Z" fill="#AFAEC6"/>
<path d="M83.3373 171.812L83.3008 179.154L92.1307 179.198L92.1672 171.855L83.3373 171.812Z" fill="#AFAEC6"/>
<path d="M74.5042 171.771L74.4678 179.113L77.1206 179.126L77.1571 171.784L74.5042 171.771Z" fill="#828090"/>
<path d="M74.7718 118.428L74.7354 125.771L92.399 125.858L92.4355 118.515L74.7718 118.428Z" fill="#AFAEC6"/>
<path d="M83.5999 118.473L83.5635 125.815L92.3934 125.859L92.4298 118.517L83.5999 118.473Z" fill="#AFAEC6"/>
<path d="M74.7699 118.427L74.7334 125.77L77.3862 125.783L77.4227 118.44L74.7699 118.427Z" fill="#828090"/>
<path d="M110.183 111.733L109.815 186.16C109.807 187.434 108.769 188.461 107.499 188.453L94.448 188.387C93.1739 188.379 92.1476 187.341 92.1553 186.071L92.5232 111.644C92.531 110.37 93.5689 109.344 94.8391 109.352L107.89 109.417C109.164 109.421 110.191 110.459 110.183 111.733Z" fill="#FFEC70"/>
<path d="M101.377 106.764L100.958 191.051L112.96 191.11L113.378 106.824L101.377 106.764Z" fill="#F5C400"/>
<path d="M95.1717 111.559L94.7999 186.179C94.7922 188.077 93.2431 189.611 91.3454 189.603C89.4478 189.595 87.9142 188.046 87.9219 186.145L88.2937 111.524C88.3014 109.626 89.8505 108.093 91.7482 108.101C93.6497 108.112 95.1833 109.661 95.1717 111.559Z" fill="#B89F00"/>
<path d="M92.225 171.856L92.1885 179.199L109.852 179.287L109.889 171.944L92.225 171.856Z" fill="#AFAEC6"/>
<path d="M101.058 171.901L101.021 179.244L109.851 179.288L109.888 171.945L101.058 171.901Z" fill="#AFAEC6"/>
<path d="M92.223 171.855L92.1865 179.198L94.8394 179.211L94.8758 171.869L92.223 171.855Z" fill="#828090"/>
<path d="M92.4847 118.518L92.4482 125.86L110.112 125.948L110.148 118.605L92.4847 118.518Z" fill="#AFAEC6"/>
<path d="M101.316 118.563L101.279 125.905L110.109 125.949L110.146 118.606L101.316 118.563Z" fill="#AFAEC6"/>
<path d="M92.4867 118.517L92.4502 125.859L95.103 125.873L95.1395 118.53L92.4867 118.517Z" fill="#828090"/>
<path d="M127.732 111.816L127.364 186.243C127.356 187.517 126.318 188.544 125.048 188.536L111.997 188.47C110.723 188.462 109.696 187.424 109.704 186.154L110.072 111.727C110.08 110.453 111.118 109.427 112.388 109.435L125.439 109.5C126.709 109.504 127.736 110.542 127.732 111.816Z" fill="#FFEC70"/>
<path d="M118.926 106.85L118.507 191.137L130.509 191.196L130.927 106.909L118.926 106.85Z" fill="#F5C400"/>
<path d="M112.721 111.647L112.35 186.267C112.342 188.165 110.793 189.699 108.891 189.691C106.994 189.683 105.46 188.134 105.468 186.232L105.84 111.612C105.847 109.714 107.396 108.181 109.298 108.189C111.196 108.2 112.729 109.745 112.721 111.647Z" fill="#B89F00"/>
<path d="M109.771 171.943L109.734 179.286L127.398 179.374L127.435 172.031L109.771 171.943Z" fill="#AFAEC6"/>
<path d="M118.602 171.988L118.565 179.331L127.395 179.375L127.432 172.032L118.602 171.988Z" fill="#AFAEC6"/>
<path d="M109.773 171.942L109.736 179.285L112.389 179.298L112.426 171.956L109.773 171.942Z" fill="#828090"/>
<path d="M110.037 118.604L110 125.946L127.664 126.034L127.7 118.691L110.037 118.604Z" fill="#AFAEC6"/>
<path d="M118.868 118.644L118.831 125.986L127.661 126.03L127.697 118.687L118.868 118.644Z" fill="#AFAEC6"/>
<path d="M110.035 118.603L109.998 125.945L112.651 125.958L112.687 118.616L110.035 118.603Z" fill="#828090"/>
<path d="M138.116 150.333H53.4531V121.322L140.753 3.95801H186.909V113.41H213.019V150.333H186.909V188.313H138.116V150.333ZM145.238 113.41V60.663L106.467 113.41H145.238Z" fill="#FFE431"/>
<path d="M260.758 180.796C247.92 173.147 238.029 162.114 231.085 147.696C224.137 133.281 220.667 116.136 220.667 96.2653C220.667 76.398 224.094 59.2533 230.953 44.835C237.812 30.4206 247.61 19.3445 260.359 11.6028C273.108 3.86889 288.189 0 305.597 0C323.005 0 338.078 3.86889 350.831 11.6067C363.576 19.3445 373.382 30.4244 380.237 44.8389C387.095 59.2572 390.523 76.4019 390.523 96.2692C390.523 116.14 387.049 133.285 380.105 147.7C373.157 162.118 363.266 173.151 350.432 180.8C337.594 188.449 322.649 192.271 305.593 192.271C288.537 192.271 273.592 188.445 260.758 180.796ZM333.024 134.772C339.526 125.632 342.783 112.972 342.783 96.792C342.783 80.4412 339.573 67.5604 333.155 58.1534C326.734 48.7504 317.548 44.045 305.593 44.045C293.634 44.045 284.448 48.7504 278.03 58.1534C271.609 67.5604 268.403 80.4412 268.403 96.792C268.403 112.972 271.652 125.632 278.162 134.772C284.664 143.916 293.812 148.486 305.593 148.486C317.374 148.49 326.517 143.92 333.024 134.772Z" fill="#FFE431"/>
<path d="M482.834 150.333H398.172V121.322L485.472 3.9541H531.627V113.406H557.738V150.329H531.627V188.309H482.834V150.333ZM489.956 113.41V60.663L451.186 113.41H489.956Z" fill="#FFE431"/>
<path d="M362.437 157.752L289.183 158.569C287.928 158.585 286.902 157.578 286.887 156.323L286.743 143.477C286.728 142.222 287.735 141.196 288.99 141.181L362.243 140.363C363.498 140.348 364.524 141.355 364.539 142.61L364.683 155.456C364.694 156.71 363.691 157.737 362.437 157.752Z" fill="#FFEC70"/>
<path d="M367.167 149.013L284.213 149.934L284.344 161.744L367.298 160.823L367.167 149.013Z" fill="#F5C400"/>
<path d="M362.367 142.978L288.924 143.795C287.053 143.814 285.523 142.316 285.5 140.449C285.481 138.578 286.98 137.049 288.846 137.025L362.289 136.208C364.16 136.189 365.69 137.688 365.713 139.554C365.736 141.425 364.237 142.955 362.367 142.978Z" fill="#B89F00"/>
<path d="M302.968 141.033L295.738 141.113L295.931 158.496L303.161 158.416L302.968 141.033Z" fill="#AFAEC6"/>
<path d="M303.063 149.723L295.833 149.804L295.93 158.497L303.159 158.417L303.063 149.723Z" fill="#AFAEC6"/>
<path d="M302.968 141.032L295.738 141.112L295.767 143.722L302.997 143.642L302.968 141.032Z" fill="#AFAEC6"/>
<path d="M355.464 140.45L348.234 140.53L348.427 157.913L355.657 157.833L355.464 140.45Z" fill="#AFAEC6"/>
<path d="M355.562 149.14L348.332 149.221L348.429 157.914L355.658 157.834L355.562 149.14Z" fill="#AFAEC6"/>
<path d="M355.464 140.449L348.234 140.529L348.263 143.139L355.493 143.059L355.464 140.449Z" fill="#AFAEC6"/>
<path d="M362.631 175.188L289.378 176.005C288.123 176.02 287.096 175.013 287.081 173.759L286.938 160.913C286.922 159.658 287.929 158.632 289.184 158.616L362.437 157.799C363.692 157.784 364.718 158.79 364.734 160.045L364.877 172.891C364.889 174.146 363.886 175.176 362.631 175.188Z" fill="#FFEC70"/>
<path d="M367.36 166.448L284.406 167.369L284.537 179.18L367.491 178.259L367.36 166.448Z" fill="#F5C400"/>
<path d="M362.56 160.413L289.117 161.23C287.247 161.25 285.717 159.751 285.694 157.884C285.674 156.014 287.173 154.484 289.04 154.461L362.483 153.644C364.353 153.624 365.883 155.123 365.906 156.99C365.929 158.86 364.431 160.39 362.56 160.413Z" fill="#B89F00"/>
<path d="M303.158 158.468L295.929 158.548L296.122 175.931L303.351 175.851L303.158 158.468Z" fill="#AFAEC6"/>
<path d="M303.253 167.158L296.023 167.238L296.12 175.932L303.35 175.852L303.253 167.158Z" fill="#AFAEC6"/>
<path d="M303.158 158.467L295.929 158.547L295.958 161.157L303.187 161.077L303.158 158.467Z" fill="#AFAEC6"/>
<path d="M355.657 157.884L348.427 157.964L348.62 175.347L355.849 175.267L355.657 157.884Z" fill="#AFAEC6"/>
<path d="M355.754 166.574L348.524 166.654L348.621 175.348L355.851 175.268L355.754 166.574Z" fill="#AFAEC6"/>
<path d="M355.656 157.883L348.427 157.963L348.456 160.573L355.685 160.493L355.656 157.883Z" fill="#AFAEC6"/>
<path d="M362.825 192.459L289.572 193.276C288.317 193.292 287.291 192.285 287.275 191.03L287.132 178.184C287.117 176.929 288.123 175.903 289.378 175.888L362.632 175.07C363.886 175.055 364.913 176.062 364.928 177.317L365.071 190.163C365.083 191.417 364.076 192.444 362.825 192.459Z" fill="#FFEC70"/>
<path d="M367.551 183.719L284.597 184.64L284.728 196.45L367.682 195.53L367.551 183.719Z" fill="#F5C400"/>
<path d="M362.755 177.685L289.312 178.502C287.442 178.521 285.912 177.023 285.889 175.156C285.869 173.285 287.368 171.756 289.235 171.732L362.678 170.915C364.549 170.896 366.078 172.395 366.102 174.261C366.121 176.132 364.622 177.662 362.755 177.685Z" fill="#B89F00"/>
<path d="M303.352 175.74L296.122 175.82L296.315 193.203L303.545 193.123L303.352 175.74Z" fill="#AFAEC6"/>
<path d="M303.447 184.43L296.217 184.511L296.313 193.204L303.543 193.124L303.447 184.43Z" fill="#AFAEC6"/>
<path d="M303.349 175.739L296.119 175.819L296.148 178.429L303.378 178.349L303.349 175.739Z" fill="#AFAEC6"/>
<path d="M355.851 175.157L348.621 175.237L348.814 192.62L356.044 192.54L355.851 175.157Z" fill="#AFAEC6"/>
<path d="M355.945 183.847L348.715 183.928L348.811 192.621L356.041 192.541L355.945 183.847Z" fill="#AFAEC6"/>
<path d="M355.851 175.156L348.621 175.236L348.65 177.846L355.88 177.766L355.851 175.156Z" fill="#AFAEC6"/>
<path d="M513.097 112.332L513.914 185.586C513.93 186.84 512.923 187.867 511.668 187.882L498.822 188.025C497.567 188.041 496.541 187.034 496.525 185.779L495.708 112.526C495.693 111.271 496.7 110.245 497.954 110.229L510.8 110.086C512.055 110.074 513.081 111.081 513.097 112.332Z" fill="#FFEC70"/>
<path d="M504.362 107.61L505.283 190.564L517.094 190.433L516.173 107.479L504.362 107.61Z" fill="#F5C400"/>
<path d="M498.319 112.402L499.136 185.845C499.155 187.716 497.656 189.245 495.79 189.269C493.919 189.288 492.389 187.789 492.366 185.923L491.549 112.479C491.53 110.609 493.028 109.079 494.895 109.056C496.766 109.033 498.299 110.531 498.319 112.402Z" fill="#B89F00"/>
<path d="M496.384 171.811L496.464 179.041L513.847 178.848L513.767 171.618L496.384 171.811Z" fill="#AFAEC6"/>
<path d="M505.077 171.716L505.157 178.945L513.851 178.849L513.77 171.619L505.077 171.716Z" fill="#AFAEC6"/>
<path d="M496.382 171.812L496.462 179.042L499.072 179.013L498.992 171.783L496.382 171.812Z" fill="#AFAEC6"/>
<path d="M495.8 119.309L495.88 126.539L513.263 126.346L513.183 119.116L495.8 119.309Z" fill="#AFAEC6"/>
<path d="M504.493 119.214L504.573 126.443L513.267 126.347L513.186 119.117L504.493 119.214Z" fill="#AFAEC6"/>
<path d="M495.802 119.311L495.882 126.541L498.492 126.512L498.412 119.282L495.802 119.311Z" fill="#AFAEC6"/>
<path d="M530.533 112.139L531.351 185.392C531.366 186.647 530.359 187.673 529.104 187.689L516.258 187.832C515.004 187.848 513.977 186.841 513.962 185.586L513.145 112.333C513.129 111.078 514.136 110.051 515.391 110.036L528.237 109.893C529.492 109.881 530.518 110.888 530.533 112.139Z" fill="#FFEC70"/>
<path d="M521.801 107.418L522.722 190.372L534.532 190.241L533.612 107.287L521.801 107.418Z" fill="#F5C400"/>
<path d="M515.755 112.209L516.572 185.652C516.592 187.522 515.093 189.052 513.226 189.075C511.356 189.095 509.826 187.596 509.803 185.729L508.986 112.286C508.966 110.416 510.465 108.886 512.332 108.863C514.202 108.839 515.736 110.338 515.755 112.209Z" fill="#B89F00"/>
<path d="M513.815 171.619L513.896 178.849L531.279 178.656L531.198 171.426L513.815 171.619Z" fill="#AFAEC6"/>
<path d="M522.509 171.523L522.589 178.753L531.282 178.656L531.202 171.427L522.509 171.523Z" fill="#AFAEC6"/>
<path d="M513.813 171.62L513.894 178.85L516.504 178.821L516.423 171.591L513.813 171.62Z" fill="#AFAEC6"/>
<path d="M513.234 119.118L513.314 126.348L530.698 126.155L530.617 118.925L513.234 119.118Z" fill="#AFAEC6"/>
<path d="M521.928 119.022L522.008 126.252L530.701 126.155L530.621 118.926L521.928 119.022Z" fill="#AFAEC6"/>
<path d="M513.234 119.12L513.314 126.35L515.924 126.321L515.844 119.091L513.234 119.12Z" fill="#AFAEC6"/>
<path d="M547.803 111.951L548.62 185.205C548.636 186.46 547.629 187.486 546.374 187.501L533.528 187.645C532.273 187.66 531.247 186.653 531.231 185.398L530.414 112.145C530.399 110.89 531.406 109.864 532.66 109.849L545.506 109.705C546.761 109.69 547.787 110.697 547.803 111.951Z" fill="#FFEC70"/>
<path d="M539.068 107.228L539.989 190.182L551.8 190.051L550.879 107.096L539.068 107.228Z" fill="#F5C400"/>
<path d="M533.025 112.017L533.842 185.46C533.861 187.331 532.362 188.861 530.496 188.884C528.625 188.903 527.095 187.404 527.072 185.538L526.255 112.095C526.236 110.224 527.734 108.694 529.601 108.671C531.472 108.652 533.005 110.15 533.025 112.017Z" fill="#B89F00"/>
<path d="M531.088 171.427L531.168 178.656L548.551 178.463L548.471 171.234L531.088 171.427Z" fill="#AFAEC6"/>
<path d="M539.776 171.331L539.856 178.561L548.55 178.464L548.47 171.234L539.776 171.331Z" fill="#AFAEC6"/>
<path d="M531.093 171.43L531.173 178.66L533.783 178.631L533.703 171.401L531.093 171.43Z" fill="#AFAEC6"/>
<path d="M530.504 118.926L530.584 126.155L547.967 125.962L547.887 118.733L530.504 118.926Z" fill="#AFAEC6"/>
<path d="M539.197 118.83L539.277 126.06L547.971 125.963L547.891 118.733L539.197 118.83Z" fill="#AFAEC6"/>
<path d="M530.504 118.927L530.584 126.157L533.194 126.128L533.114 118.899L530.504 118.927Z" fill="#AFAEC6"/>
<path d="M32.0084 287.083C16.1107 287.083 3.17567 274.148 3.17567 258.251C3.17567 242.353 16.1107 229.418 32.0084 229.418H371.476C382.366 229.418 391.227 220.557 391.227 209.667V207.738H420.478C431.081 207.738 439.71 199.11 439.71 188.506V109.056C439.71 98.7044 448.133 90.2811 458.485 90.2811H513.753C517.397 90.2811 520.364 93.2477 520.364 96.8919V97.2018H512.239C507.425 97.2018 503.514 101.117 503.514 105.931V110.156H506.689V105.931C506.689 102.868 509.18 100.377 512.243 100.377H520.368V110.152H523.544V100.377H532.087C535.15 100.377 537.64 102.868 537.64 105.931V109.777H540.816V105.931C540.816 101.117 536.901 97.2018 532.091 97.2018H523.547V96.8919C523.547 91.4972 519.156 87.1055 513.761 87.1055H458.493C446.39 87.1055 436.542 96.95 436.542 109.056V188.506C436.542 197.359 429.339 204.563 420.485 204.563H391.234V180.838C391.234 173.213 385.859 166.826 378.698 165.254V156.01C378.698 150.987 374.609 146.897 369.586 146.897H364.613V150.073H369.586C372.858 150.073 375.523 152.737 375.523 156.01V164.886C375.441 164.886 375.36 164.878 375.275 164.878H364.807V168.054H375.271C375.352 168.054 375.437 168.058 375.519 168.062V177.655C375.519 180.16 373.482 182.197 370.976 182.197H364.996V185.373H370.976C375.232 185.373 378.694 181.911 378.694 177.655V168.523C384.085 170.021 388.055 174.971 388.055 180.834V209.659C388.055 218.799 380.619 226.238 371.476 226.238H161.618V121.027C161.618 109.947 152.606 100.935 141.526 100.935H125.458C120.737 100.935 116.899 104.773 116.899 109.494H120.075C120.075 106.524 122.492 104.111 125.458 104.111H141.526C150.856 104.111 158.443 111.701 158.443 121.027V226.246H32.0084C14.3563 226.242 0 240.603 0 258.251C0 275.899 14.3563 290.259 32.0084 290.259H594.764V287.083H32.0084Z" fill="#AFAEC6"/>
<path d="M585.597 239.231H582.309V258.142H585.597V239.231Z" fill="#AFAEC6"/>
<path d="M591.537 258.142H576.371V261.015H591.537V258.142Z" fill="#AFAEC6"/>
<path d="M591.341 236.354H576.175V239.227H591.341V236.354Z" fill="#AFAEC6"/>
<path d="M605.836 263.896H562.093C561.299 263.896 560.652 263.253 560.652 262.455C560.652 261.661 561.295 261.015 562.093 261.015H605.84C606.634 261.015 607.28 261.658 607.28 262.455C607.277 263.249 606.634 263.896 605.836 263.896Z" fill="#AFAEC6"/>
<path d="M605.836 307.178H562.093C561.299 307.178 560.652 306.535 560.652 305.738C560.652 304.944 561.295 304.297 562.093 304.297H605.84C606.634 304.297 607.28 304.94 607.28 305.738C607.277 306.531 606.634 307.178 605.836 307.178Z" fill="#AFAEC6"/>
<path d="M603.957 263.896H563.553V304.301H603.957V263.896Z" fill="#FFEC70"/>
<path d="M597.079 236.353H570.434C569.652 236.353 569.021 235.718 569.021 234.94V229.812C569.021 229.03 569.656 228.398 570.434 228.398H597.079C597.861 228.398 598.492 229.034 598.492 229.812V234.94C598.492 235.722 597.861 236.353 597.079 236.353Z" fill="#F5C400"/>
<path d="M599.636 231.241H569.599C568.239 231.241 567.136 230.137 567.136 228.778C567.136 227.418 568.239 226.314 569.599 226.314H599.636C600.995 226.314 602.099 227.418 602.099 228.778C602.099 230.137 600.995 231.241 599.636 231.241Z" fill="#FFEC70"/>
<path d="M567.651 263.896V267.665H593.308V301.199H567.651V304.301H603.959V263.896H567.651Z" fill="#F5C400"/>
<path d="M571.5 263.896H569.754V304.301H571.5V263.896Z" fill="#AFAEC6"/>
<path d="M580.241 263.896H578.494V304.301H580.241V263.896Z" fill="#AFAEC6"/>
<path d="M589.226 263.896H587.479V304.301H589.226V263.896Z" fill="#AFAEC6"/>
<path d="M597.966 263.896H596.22V304.301H597.966V263.896Z" fill="#AFAEC6"/>
</svg>
